<svg width="32" height="32" viewBox="0 0 32 32" fill="none" xmlns="http://www.w3.org/2000/svg">
<path d="M18.8444 13.1556H3.2V16H6.04444V25.9556C6.04444 27.52 7.32444 28.8 8.88889 28.8H23.1111C24.6756 28.8 25.9556 27.52 25.9556 25.9556V16H28.8V13.1556H18.8444Z" fill="black"/>
<path d="M24.5333 3.34222L19.6978 11.7333H22.9689L26.9511 4.76444L24.5333 3.34222Z" fill="black"/>
<path d="M17.0667 25.6C17.6905 25.6 18.2176 25.6 18.6667 25.5813C19.6652 25.5399 20.2775 25.4061 20.7083 24.9749C21.3333 24.3504 21.3333 23.3445 21.3333 21.3333C21.3333 19.3221 21.3333 18.3163 20.7083 17.6917C20.0837 17.0667 19.0779 17.0667 17.0667 17.0667H14.9333C12.9221 17.0667 11.9163 17.0667 11.2917 17.6917C10.6667 18.3163 10.6667 19.3221 10.6667 21.3333C10.6667 23.3445 10.6667 24.3504 11.2917 24.9749C11.64 25.3237 12.1067 25.4779 12.8 25.5456" fill="white"/>
<path d="M17.0667 25.6C16.4075 25.6 15.6811 25.8667 15.0181 26.2107C13.9525 26.7637 13.4197 27.0405 13.1573 26.864C12.9382 26.717 12.9367 26.3116 13.0002 25.5456C13.0127 25.3943 13.0278 25.2288 13.0443 25.0485L13.0667 24.8" fill="white"/>
<path d="M17.0667 25.6C16.4075 25.6 15.6811 25.8667 15.0181 26.2107C13.9525 26.7637 13.4197 27.0405 13.1573 26.864C12.9382 26.717 12.9367 26.3116 13.0002 25.5456M17.0667 25.6C17.6905 25.6 18.2176 25.6 18.6667 25.5813M17.0667 25.6L18.6667 25.5813M13.0667 24.8L13.0443 25.0485C13.0278 25.2288 13.0127 25.3943 13.0002 25.5456M13.0002 25.5456H12.8C12.1067 25.4779 11.64 25.3237 11.2917 24.9749C10.6667 24.3504 10.6667 23.3445 10.6667 21.3333C10.6667 19.3221 10.6667 18.3163 11.2917 17.6917C11.9163 17.0667 12.9221 17.0667 14.9333 17.0667H17.0667C19.0779 17.0667 20.0837 17.0667 20.7083 17.6917C21.3333 18.3163 21.3333 19.3221 21.3333 21.3333C21.3333 23.3445 21.3333 24.3504 20.7083 24.9749C20.2775 25.4061 19.6652 25.5399 18.6667 25.5813" stroke="black" stroke-width="0.5" stroke-linecap="round" stroke-linejoin="round"/>
<path d="M14.9333 19.9915C15.2 19.4635 15.4667 19.2 16 19.2C16.6645 19.2 17.0667 19.7275 17.0667 20.2549C17.0667 20.7824 16.8 20.8059 16 21.3333V21.8667M16 23.2V23.4667" stroke="black" stroke-width="0.5" stroke-linecap="round"/>
<path d="M5.31327 5.31327C5.9834 4.64314 6.89229 4.26667 7.84 4.26667V5.86667C6.77333 5.86667 5.86667 6.64533 5.86667 7.73333C5.86667 8.82133 6.77333 9.86667 7.84 9.86667H9.472C10.8907 9.86667 12.16 10.6133 12.7787 11.7333H10.624C10.2827 11.52 9.888 11.4133 9.472 11.4133H7.84C6.89229 11.4133 5.9834 11.0369 5.31327 10.3667C4.64314 9.6966 4.26667 8.78771 4.26667 7.84C4.26667 6.89229 4.64314 5.9834 5.31327 5.31327Z" fill="black"/>
<path d="M11.04 6.77333C12.1067 6.77333 13.0133 5.86667 13.0133 4.8H14.6133C14.6133 5.792 14.208 6.688 13.5467 7.33867C14.4068 7.75236 15.1539 8.36818 15.7242 9.1335C16.2944 9.89881 16.6709 10.7908 16.8213 11.7333H15.1893C14.7733 9.81333 13.088 8.37333 11.04 8.37333V6.77333Z" fill="black"/>
</svg>
